<svg width="13" height="14" viewBox="0 0 13 14" fill="none" xmlns="http://www.w3.org/2000/svg">
<path d="M9.07222 1.94445C8.635 1.57391 8.17667 1.18445 7.71 0.76C7.35201 0.434427 6.86852 0.283542 6.38888 0.347786C5.92409 0.409193 5.51055 0.67375 5.26 1.07C4.59776 2.17667 4.12953 3.38836 3.87555 4.65279C3.77589 4.50888 3.68748 4.35753 3.6111 4.2C3.34797 3.64562 2.68526 3.40951 2.13089 3.67263C1.99667 3.73633 1.87659 3.8263 1.77776 3.93721C0.845914 4.88945 0.329325 6.17214 0.341096 7.50443C0.314612 10.3047 2.19823 12.7634 4.90888 13.4667C5.41323 13.5936 5.93104 13.6592 6.4511 13.6622C6.46776 13.6622 6.64498 13.6605 6.71664 13.6555C10.0333 13.5481 12.6652 10.8262 12.6611 7.50776C12.6589 4.99112 10.9967 3.58 9.07222 1.94445ZM6.43722 12.5472C6.02375 12.5158 5.61516 12.3483 5.30667 12.0994C4.8236 11.7576 4.50394 11.2564 4.42779 10.6789C4.33334 9.77776 4.88891 8.59943 6.02391 7.26833C6.14292 7.12932 6.31703 7.04966 6.50003 7.05055C6.68065 7.04925 6.85242 7.1287 6.96836 7.26721C8.00836 8.50167 8.57948 9.64055 8.57948 10.4744C8.57628 11.57 7.71995 12.4367 6.62948 12.5422C6.58159 12.5469 6.5 12.5539 6.43722 12.5472ZM9.59779 11.4905C9.565 11.5161 9.52891 11.5367 9.49558 11.5611C9.62375 11.2127 9.68977 10.8445 9.69058 10.4733C9.69058 9.06943 8.67112 7.56497 7.8167 6.54997C7.4898 6.16281 7.00896 5.93927 6.50224 5.93885H6.5C5.99227 5.93794 5.50969 6.15995 5.18 6.54607C3.82167 8.13719 3.19779 9.56662 3.32555 10.7949C3.35589 11.0801 3.42873 11.3591 3.54167 11.6227C2.22245 10.6668 1.44513 9.13349 1.45388 7.5044C1.44315 6.44609 1.8605 5.42833 2.6111 4.68219C2.73925 4.94859 2.89313 5.20182 3.07055 5.43831C3.31422 5.76773 3.7305 5.9206 4.12943 5.82719C4.53617 5.73721 4.85198 5.41641 4.93555 5.00831C5.15875 3.82852 5.58529 2.69648 6.1961 1.66276C6.27125 1.54458 6.39539 1.4663 6.53443 1.44943C6.68982 1.42852 6.84646 1.47755 6.96222 1.58331C7.43888 2.01664 7.90667 2.41664 8.3511 2.79276C10.2056 4.36776 11.5461 5.50555 11.5461 7.50776C11.5509 9.06591 10.8316 10.5379 9.59943 11.4916L9.59779 11.4905Z" fill="white"/>
</svg>
