<svg width="28" height="30" viewBox="0 0 28 30" fill="none" xmlns="http://www.w3.org/2000/svg">
<path fill-rule="evenodd" clip-rule="evenodd" d="M16.8633 3.74048L19.0502 5.931H16.8633V3.74048ZM1.58924 3.06509H15.9062V6.40775C15.9062 6.67141 16.1211 6.88269 16.3847 6.88269H19.7256V10.7021C19.7256 10.9658 19.9405 11.1807 20.2041 11.1807C20.4678 11.1807 20.6791 10.9658 20.6791 10.7021V6.40775C20.6791 6.27592 20.6267 6.15493 20.54 6.06825L16.7242 2.25244C16.6357 2.16396 16.5166 2.10978 16.3847 2.10978H3.49985V1.15628H21.6344V11.6556C21.6344 11.9193 21.8457 12.1342 22.1093 12.1342C22.373 12.1342 22.5879 11.9193 22.5879 11.6556V0.679533C22.5879 0.415876 22.373 0.20459 22.1093 0.20459H3.02129C2.75764 0.20459 2.54274 0.415876 2.54274 0.679533V2.11159H1.11069C0.847029 2.11159 0.635742 2.32649 0.635742 2.59014V29.3152C0.635742 29.5789 0.847029 29.7938 1.11069 29.7938H16.8633C17.1269 29.7938 17.3418 29.5789 17.3418 29.3152C17.3418 29.0515 17.1269 28.8366 16.8633 28.8366H1.58924V3.06509Z" fill="#605444"/>
<path fill-rule="evenodd" clip-rule="evenodd" d="M26.4091 22.7294C26.4091 24.2644 25.5802 25.6946 24.2457 26.4567L20.2041 28.7682L16.1626 26.4567C14.828 25.6946 13.9992 24.2644 13.9992 22.7294V15.4752H14.2393C16.5165 15.4752 18.6673 14.529 20.2041 12.8639C21.7373 14.529 23.8881 15.4752 26.1653 15.4752H26.4091V22.7294ZM26.884 14.5217H26.1653C24.0344 14.5217 22.0317 13.5827 20.6664 11.9466L20.5707 11.831C20.3901 11.6143 20.0181 11.6143 19.8357 11.831L19.74 11.9466C18.3748 13.5827 16.3721 14.5217 14.2393 14.5217H13.5206C13.2569 14.5217 13.0457 14.7366 13.0457 15.0003V22.7294C13.0457 24.6093 14.0587 26.3538 15.6913 27.2874L19.9676 29.7308C20.0434 29.7741 20.1229 29.7958 20.2059 29.7958C20.289 29.7958 20.3685 29.7759 20.4407 29.7308L24.7188 27.2874C26.3495 26.3538 27.3644 24.6093 27.3644 22.7294V15.0003C27.3644 14.7366 27.1531 14.5217 26.8858 14.5217H26.884Z" fill="#605444"/>
<path fill-rule="evenodd" clip-rule="evenodd" d="M20.2043 25.4976C17.8368 25.4976 15.9081 23.5708 15.9081 21.2033C15.9081 18.8358 17.8368 16.9071 20.2043 16.9071C22.5717 16.9071 24.4986 18.834 24.4986 21.2033C24.4986 23.5726 22.5717 25.4976 20.2043 25.4976ZM20.2043 15.9536C17.3094 15.9536 14.9546 18.3085 14.9546 21.2033C14.9546 24.0981 17.3094 26.4511 20.2043 26.4511C23.0991 26.4511 25.4557 24.0963 25.4557 21.2033C25.4557 18.3103 23.1009 15.9536 20.2043 15.9536Z" fill="#8CC63F"/>
<path fill-rule="evenodd" clip-rule="evenodd" d="M19.9765 22.6879L19.1097 21.8193L18.4343 22.4947L19.8646 23.9267C19.9549 24.017 20.0759 24.0658 20.2041 24.0658C20.242 24.0658 20.2817 24.0603 20.3197 24.0531C20.4822 24.0116 20.6122 23.887 20.661 23.7281L22.093 18.9552L21.1774 18.6807L19.9747 22.6879H19.9765Z" fill="#8CC63F"/>
<path fill-rule="evenodd" clip-rule="evenodd" d="M9.22636 4.97547C8.9627 4.97547 8.7478 4.76057 8.7478 4.49692C8.7478 4.23326 8.9627 4.02197 9.22636 4.02197H14.4778C14.7415 4.02197 14.9528 4.23326 14.9528 4.49692C14.9528 4.76057 14.7415 4.97547 14.4778 4.97547H9.22636Z" fill="#8CC63F"/>
<path fill-rule="evenodd" clip-rule="evenodd" d="M3.02299 8.79334C2.75933 8.79334 2.54443 8.57844 2.54443 8.31479C2.54443 8.05113 2.75933 7.83984 3.02299 7.83984H14.4776C14.7413 7.83984 14.9526 8.05113 14.9526 8.31479C14.9526 8.57844 14.7413 8.79334 14.4776 8.79334H3.02299Z" fill="#8CC63F"/>
<path fill-rule="evenodd" clip-rule="evenodd" d="M3.02299 12.6129C2.75933 12.6129 2.54443 12.398 2.54443 12.1343C2.54443 11.8707 2.75933 11.6558 3.02299 11.6558H14.4776C14.7413 11.6558 14.9526 11.8707 14.9526 12.1343C14.9526 12.398 14.7413 12.6129 14.4776 12.6129H3.02299Z" fill="#8CC63F"/>
<path fill-rule="evenodd" clip-rule="evenodd" d="M3.02299 14.5199C2.75933 14.5199 2.54443 14.305 2.54443 14.0413C2.54443 13.7777 2.75933 13.5664 3.02299 13.5664H11.6135C11.8772 13.5664 12.0885 13.7813 12.0885 14.0413C12.0885 14.3014 11.8772 14.5199 11.6135 14.5199H3.02299Z" fill="#8CC63F"/>
<path fill-rule="evenodd" clip-rule="evenodd" d="M3.02299 27.8832C2.75933 27.8832 2.54443 27.6719 2.54443 27.4082C2.54443 27.1446 2.75933 26.9297 3.02299 26.9297H11.6135C11.8772 26.9297 12.0885 27.1446 12.0885 27.4082C12.0885 27.6719 11.8772 27.8832 11.6135 27.8832H3.02299Z" fill="#8CC63F"/>
<path fill-rule="evenodd" clip-rule="evenodd" d="M3.02299 25.976C2.75933 25.976 2.54443 25.7611 2.54443 25.4974C2.54443 25.2337 2.75933 25.0225 3.02299 25.0225H11.6135C11.8772 25.0225 12.0885 25.2337 12.0885 25.4974C12.0885 25.7611 11.8772 25.976 11.6135 25.976H3.02299Z" fill="#8CC63F"/>
<path fill-rule="evenodd" clip-rule="evenodd" d="M3.02299 24.0653C2.75933 24.0653 2.54443 23.854 2.54443 23.5904C2.54443 23.3267 2.75933 23.1118 3.02299 23.1118H11.6135C11.8772 23.1118 12.0885 23.3267 12.0885 23.5904C12.0885 23.854 11.8772 24.0653 11.6135 24.0653H3.02299Z" fill="#8CC63F"/>
<path fill-rule="evenodd" clip-rule="evenodd" d="M3.02299 18.3392C2.75933 18.3392 2.54443 18.1243 2.54443 17.8607C2.54443 17.597 2.75933 17.3857 3.02299 17.3857H11.6135C11.8772 17.3857 12.0885 17.597 12.0885 17.8607C12.0885 18.1243 11.8772 18.3392 11.6135 18.3392H3.02299Z" fill="#8CC63F"/>
<path fill-rule="evenodd" clip-rule="evenodd" d="M3.02299 16.4303C2.75933 16.4303 2.54443 16.2154 2.54443 15.9517C2.54443 15.688 2.75933 15.4731 3.02299 15.4731H11.6135C11.8772 15.4731 12.0885 15.688 12.0885 15.9517C12.0885 16.2154 11.8772 16.4303 11.6135 16.4303H3.02299Z" fill="#8CC63F"/>
<path fill-rule="evenodd" clip-rule="evenodd" d="M3.02299 10.702C2.75933 10.702 2.54443 10.4907 2.54443 10.2271C2.54443 9.96343 2.75933 9.74854 3.02299 9.74854H14.4776C14.7413 9.74854 14.9526 9.96343 14.9526 10.2271C14.9526 10.4907 14.7413 10.702 14.4776 10.702H3.02299Z" fill="#8CC63F"/>
<path fill-rule="evenodd" clip-rule="evenodd" d="M3.97835 4.49711C3.97835 4.23345 3.76345 4.01855 3.4998 4.01855C3.23614 4.01855 3.02124 4.23345 3.02124 4.49711C3.02124 4.76077 3.23614 4.97567 3.4998 4.97567C3.76345 4.97567 3.97835 4.76077 3.97835 4.49711Z" fill="#8CC63F"/>
<path fill-rule="evenodd" clip-rule="evenodd" d="M5.88729 4.49711C5.88729 4.23345 5.67239 4.01855 5.40873 4.01855C5.14507 4.01855 4.93018 4.23345 4.93018 4.49711C4.93018 4.76077 5.14507 4.97567 5.40873 4.97567C5.67239 4.97567 5.88729 4.76077 5.88729 4.49711Z" fill="#8CC63F"/>
<path fill-rule="evenodd" clip-rule="evenodd" d="M7.79427 4.49711C7.79427 4.23345 7.57937 4.01855 7.31571 4.01855C7.05206 4.01855 6.83716 4.23345 6.83716 4.49711C6.83716 4.76077 7.05206 4.97567 7.31571 4.97567C7.57937 4.97567 7.79427 4.76077 7.79427 4.49711Z" fill="#8CC63F"/>
<path fill-rule="evenodd" clip-rule="evenodd" d="M22.1148 18.8179C22.1148 18.5543 21.8999 18.3394 21.6363 18.3394C21.3726 18.3394 21.1577 18.5543 21.1577 18.8179C21.1577 19.0816 21.3726 19.2965 21.6363 19.2965C21.8999 19.2965 22.1148 19.0816 22.1148 18.8179Z" fill="#8CC63F"/>
<path fill-rule="evenodd" clip-rule="evenodd" d="M19.2489 22.1568C19.2489 21.8931 19.034 21.6782 18.7703 21.6782C18.5066 21.6782 18.2917 21.8931 18.2917 22.1568C18.2917 22.4204 18.5066 22.6353 18.7703 22.6353C19.034 22.6353 19.2489 22.4204 19.2489 22.1568Z" fill="#8CC63F"/>
</svg>
