<svg width="12" height="12" viewBox="0 0 12 12" fill="none" xmlns="http://www.w3.org/2000/svg">
<path fill-rule="evenodd" clip-rule="evenodd" d="M6 11.6638L6.32886 11.3766C9.09435 8.96186 10.5 6.85338 10.5 5C10.5 2.37533 8.45147 0.5 6 0.5C3.54853 0.5 1.5 2.37533 1.5 5C1.5 6.85338 2.90565 8.96186 5.67114 11.3766L6 11.6638ZM6 10.3317C3.65331 8.21677 2.5 6.42462 2.5 5C2.5 2.9483 4.08206 1.5 6 1.5C7.91794 1.5 9.5 2.9483 9.5 5C9.5 6.42462 8.34669 8.21677 6 10.3317ZM6 2.5C7.38071 2.5 8.5 3.61929 8.5 5C8.5 6.38071 7.38071 7.5 6 7.5C4.61929 7.5 3.5 6.38071 3.5 5C3.5 3.61929 4.61929 2.5 6 2.5ZM4.5 5C4.5 4.17157 5.17157 3.5 6 3.5C6.82843 3.5 7.5 4.17157 7.5 5C7.5 5.82843 6.82843 6.5 6 6.5C5.17157 6.5 4.5 5.82843 4.5 5Z" fill="#303030"/>
</svg>
