<svg width="13" height="14" viewBox="0 0 13 14" fill="white" xmlns="http://www.w3.org/2000/svg">
<path d="M10.9488 13.6686C10.8194 13.6687 10.6917 13.6385 10.576 13.5807C10.4602 13.5228 10.3595 13.4387 10.2819 13.3351C10.2043 13.2316 10.1518 13.1114 10.1287 12.984C10.1056 12.8566 10.1125 12.7257 10.1488 12.6014C10.215 12.3737 10.2894 12.1614 10.3633 11.9525C11.0416 10.5814 10.4505 8.65754 9.70106 7.70365C8.99044 6.70989 8.56979 5.53829 8.48602 4.31947C8.40224 3.10065 8.65864 1.88251 9.22662 0.800872C9.32416 0.601959 9.49672 0.449942 9.70634 0.378261C9.91597 0.306581 10.1455 0.321109 10.3444 0.418649C10.5433 0.51619 10.6953 0.688754 10.767 0.898378C10.8387 1.108 10.8242 1.33751 10.7266 1.53643C10.2866 2.35469 10.0869 3.28074 10.1507 4.20764C10.2145 5.13455 10.5391 6.0245 11.0872 6.77476C12.0683 7.97587 12.8172 10.7309 11.9366 12.5075C11.8733 12.6881 11.8083 12.8714 11.75 13.0692C11.6993 13.2424 11.5938 13.3944 11.4494 13.5025C11.3049 13.6106 11.1293 13.6689 10.9488 13.6686ZM7.05995 13.6686C6.93052 13.6687 6.80286 13.6385 6.68709 13.5807C6.57132 13.5228 6.47063 13.4387 6.393 13.3351C6.31536 13.2316 6.26292 13.1114 6.23983 12.984C6.21673 12.8566 6.22362 12.7257 6.25995 12.6014C6.32606 12.3737 6.40051 12.1614 6.4744 11.9525C7.15273 10.5814 6.56162 8.65754 5.81217 7.70365C5.10155 6.70989 4.6809 5.53829 4.59713 4.31947C4.51335 3.10065 4.76975 1.88251 5.33773 0.800872C5.43527 0.601959 5.60783 0.449942 5.81746 0.378261C6.02708 0.306581 6.25659 0.321109 6.45551 0.418649C6.65442 0.51619 6.80644 0.688754 6.87812 0.898378C6.9498 1.108 6.93527 1.33751 6.83773 1.53643C6.39766 2.35469 6.198 3.28074 6.2618 4.20764C6.3256 5.13455 6.65026 6.0245 7.19828 6.77476C8.17939 7.97587 8.92828 10.7309 8.04773 12.5075C7.9844 12.6881 7.9194 12.8714 7.86106 13.0692C7.81042 13.2424 7.70495 13.3944 7.56048 13.5025C7.41602 13.6106 7.24038 13.6689 7.05995 13.6686ZM3.17106 13.6686C3.04163 13.6687 2.91397 13.6385 2.7982 13.5807C2.68243 13.5228 2.58174 13.4387 2.50411 13.3351C2.42647 13.2316 2.37403 13.1114 2.35094 12.984C2.32784 12.8566 2.33473 12.7257 2.37106 12.6014C2.43717 12.3737 2.51162 12.1614 2.58551 11.9525C3.26384 10.5814 2.67273 8.65754 1.92328 7.70365C1.21266 6.70989 0.79201 5.53829 0.708237 4.31947C0.624465 3.10065 0.880861 1.88251 1.44884 0.800872C1.54638 0.601959 1.71894 0.449942 1.92857 0.378261C2.13819 0.306581 2.3677 0.321109 2.56662 0.418649C2.76553 0.51619 2.91755 0.688754 2.98923 0.898378C3.06091 1.108 3.04638 1.33751 2.94884 1.53643C2.50877 2.35469 2.30911 3.28074 2.37291 4.20764C2.43671 5.13455 2.76137 6.0245 3.30939 6.77476C4.28884 7.97587 5.03773 10.7309 4.15717 12.5075C4.09384 12.6881 4.02884 12.8714 3.97051 13.0692C3.91995 13.2421 3.81472 13.394 3.67059 13.502C3.52647 13.6101 3.3512 13.6686 3.17106 13.6686Z" fill="white"/>
</svg>
